<svg xmlns="http://www.w3.org/2000/svg" width="760" height="440" font-family="sans-serif" font-size="11">
<rect width="760" height="440" fill="white"/>
<text x="380.0" y="22" text-anchor="middle" font-size="14">NF 長 vs 同期変換の総レイテンシ差(正 = NF が速い)</text>
<line x1="62" y1="378" x2="698" y2="378" stroke="#444"/><line x1="62" y1="62" x2="62" y2="378" stroke="#444"/>
<text x="380.0" y="426" text-anchor="middle">NF のトークン数(o200k)</text>
<text x="16" y="220.0" transform="rotate(-90 16 220.0)" text-anchor="middle">変換+SeCF TTFT − NF TTFT(秒)</text>
<text x="62" y="392" text-anchor="middle">33.2</text>
<text x="56" y="382" text-anchor="end">1.93</text>
<text x="221" y="392" text-anchor="middle">63</text>
<text x="56" y="303" text-anchor="end">5.51</text>
<text x="380" y="392" text-anchor="middle">120</text>
<text x="56" y="224" text-anchor="end">9.09</text>
<text x="539" y="392" text-anchor="middle">227</text>
<text x="56" y="145" text-anchor="end">12.7</text>
<text x="698" y="392" text-anchor="middle">432</text>
<text x="56" y="66" text-anchor="end">16.3</text>
<polyline fill="none" stroke="#c0392b" stroke-width="2" points="62,373 363,332 692,116"/>
<circle cx="62" cy="373" r="3" fill="#c0392b"/>
<circle cx="363" cy="332" r="3" fill="#c0392b"/>
<circle cx="692" cy="116" r="3" fill="#c0392b"/>
<rect x="570" y="34" width="10" height="10" fill="#c0392b"/><text x="585" y="43">chat 同期の総差(s)</text>
<polyline fill="none" stroke="#2471a3" stroke-width="2" points="108,378 334,330 698,88"/>
<circle cx="108" cy="378" r="3" fill="#2471a3"/>
<circle cx="334" cy="330" r="3" fill="#2471a3"/>
<circle cx="698" cy="88" r="3" fill="#2471a3"/>
<rect x="570" y="49" width="10" height="10" fill="#2471a3"/><text x="585" y="58">news 同期の総差(s)</text>
<polyline fill="none" stroke="#1e8449" stroke-width="2" points="101,375 344,338 692,62"/>
<circle cx="101" cy="375" r="3" fill="#1e8449"/>
<circle cx="344" cy="338" r="3" fill="#1e8449"/>
<circle cx="692" cy="62" r="3" fill="#1e8449"/>
<rect x="570" y="64" width="10" height="10" fill="#1e8449"/><text x="585" y="73">bullets 同期の総差(s)</text>
</svg>