<svg xmlns="http://www.w3.org/2000/svg" width="760" height="460" font-family="sans-serif" font-size="11">
<rect width="760" height="460" fill="white"/>
<text x="380.0" y="22" text-anchor="middle" font-size="14">google/gemma-4-12b 8000 seed1: tokens vs accuracy</text>
<line x1="60" y1="400" x2="700" y2="400" stroke="#444"/><line x1="60" y1="60" x2="60" y2="400" stroke="#444"/>
<text x="380.0" y="446" text-anchor="middle">context tokens</text>
<text x="16" y="230.0" transform="rotate(-90 16 230.0)" text-anchor="middle">QA accuracy (%)</text>
<text x="60" y="414" text-anchor="middle">2707</text>
<text x="54" y="404" text-anchor="end">91</text>
<line x1="60" y1="400" x2="700" y2="400" stroke="#eee"/>
<text x="220" y="414" text-anchor="middle">3780</text>
<text x="54" y="319" text-anchor="end">93</text>
<line x1="60" y1="315" x2="700" y2="315" stroke="#eee"/>
<text x="380" y="414" text-anchor="middle">4853</text>
<text x="54" y="234" text-anchor="end">95</text>
<line x1="60" y1="230" x2="700" y2="230" stroke="#eee"/>
<text x="540" y="414" text-anchor="middle">5925</text>
<text x="54" y="149" text-anchor="end">98</text>
<line x1="60" y1="145" x2="700" y2="145" stroke="#eee"/>
<text x="700" y="414" text-anchor="middle">6998</text>
<text x="54" y="64" text-anchor="end">100</text>
<line x1="60" y1="60" x2="700" y2="60" stroke="#eee"/>
<circle cx="670" cy="215" r="4.5" fill="#c0392b" fill-opacity="0.8"/>
<text x="676" y="210" fill="#333">L0</text>
<circle cx="116" cy="137" r="4.5" fill="#c0392b" fill-opacity="0.8"/>
<text x="122" y="132" fill="#333">L1</text>
<circle cx="124" cy="60" r="4.5" fill="#c0392b" fill-opacity="0.8"/>
<text x="130" y="55" fill="#333">L5</text>
<circle cx="72" cy="60" r="4.5" fill="#2471a3" fill-opacity="0.8"/>
<text x="78" y="55" fill="#333">particle</text>
<circle cx="120" cy="60" r="4.5" fill="#2471a3" fill-opacity="0.8"/>
<text x="126" y="55" fill="#333">kanji</text>
<circle cx="459" cy="215" r="4.5" fill="#2471a3" fill-opacity="0.8"/>
<text x="465" y="210" fill="#333">subj</text>
<circle cx="122" cy="137" r="4.5" fill="#2471a3" fill-opacity="0.8"/>
<text x="128" y="132" fill="#333">attr</text>
<circle cx="115" cy="137" r="4.5" fill="#2471a3" fill-opacity="0.8"/>
<text x="121" y="132" fill="#333">tense</text>
<circle cx="116" cy="60" r="4.5" fill="#2471a3" fill-opacity="0.8"/>
<text x="122" y="55" fill="#333">simple</text>
<circle cx="103" cy="60" r="4.5" fill="#2471a3" fill-opacity="0.8"/>
<text x="109" y="55" fill="#333">neg</text>
<circle cx="101" cy="60" r="4.5" fill="#2471a3" fill-opacity="0.8"/>
<text x="107" y="55" fill="#333">unc</text>
<circle cx="116" cy="215" r="4.5" fill="#2471a3" fill-opacity="0.8"/>
<text x="122" y="210" fill="#333">cond</text>
<circle cx="119" cy="215" r="4.5" fill="#2471a3" fill-opacity="0.8"/>
<text x="125" y="210" fill="#333">cause</text>
<circle cx="117" cy="137" r="4.5" fill="#2471a3" fill-opacity="0.8"/>
<text x="123" y="132" fill="#333">cmp</text>
<circle cx="147" cy="60" r="4.5" fill="#2471a3" fill-opacity="0.8"/>
<text x="153" y="55" fill="#333">struct</text>
<circle cx="120" cy="60" r="4.5" fill="#2471a3" fill-opacity="0.8"/>
<text x="126" y="55" fill="#333">simple+neg+order</text>
<circle cx="74" cy="60" r="4.5" fill="#1e8449" fill-opacity="0.8"/>
<text x="80" y="55" fill="#333">ladder2</text>
<circle cx="93" cy="60" r="4.5" fill="#1e8449" fill-opacity="0.8"/>
<text x="99" y="55" fill="#333">ladder4</text>
<circle cx="79" cy="60" r="4.5" fill="#1e8449" fill-opacity="0.8"/>
<text x="85" y="55" fill="#333">ladder7</text>
<circle cx="93" cy="60" r="4.5" fill="#1e8449" fill-opacity="0.8"/>
<text x="99" y="55" fill="#333">ladder10</text>
<circle cx="124" cy="60" r="4.5" fill="#1e8449" fill-opacity="0.8"/>
<text x="130" y="55" fill="#333">ladder11</text>
<circle cx="145" cy="60" r="4.5" fill="#1e8449" fill-opacity="0.8"/>
<text x="151" y="55" fill="#333">ladder12</text>
</svg>