<svg xmlns="http://www.w3.org/2000/svg" width="760" height="460" font-family="sans-serif" font-size="11">
<rect width="760" height="460" fill="white"/>
<text x="380.0" y="22" text-anchor="middle" font-size="14">google/gemma-4-12b 8000 (red=JA blue=EN green=KO)</text>
<line x1="60" y1="400" x2="700" y2="400" stroke="#444"/><line x1="60" y1="60" x2="60" y2="400" stroke="#444"/>
<text x="380.0" y="446" text-anchor="middle">context tokens</text>
<text x="16" y="230.0" transform="rotate(-90 16 230.0)" text-anchor="middle">QA accuracy (%)</text>
<text x="60" y="414" text-anchor="middle">2911</text>
<text x="54" y="404" text-anchor="end">53</text>
<line x1="60" y1="400" x2="700" y2="400" stroke="#eee"/>
<text x="220" y="414" text-anchor="middle">4328</text>
<text x="54" y="319" text-anchor="end">65</text>
<line x1="60" y1="315" x2="700" y2="315" stroke="#eee"/>
<text x="380" y="414" text-anchor="middle">5745</text>
<text x="54" y="234" text-anchor="end">77</text>
<line x1="60" y1="230" x2="700" y2="230" stroke="#eee"/>
<text x="540" y="414" text-anchor="middle">7162</text>
<text x="54" y="149" text-anchor="end">88</text>
<line x1="60" y1="145" x2="700" y2="145" stroke="#eee"/>
<text x="700" y="414" text-anchor="middle">8579</text>
<text x="54" y="64" text-anchor="end">100</text>
<line x1="60" y1="60" x2="700" y2="60" stroke="#eee"/>
<circle cx="85" cy="60" r="4.5" fill="#c0392b" fill-opacity="0.8"/>
<text x="91" y="55" fill="#333">JA-IRC</text>
<circle cx="89" cy="75" r="4.5" fill="#2471a3" fill-opacity="0.8"/>
<text x="95" y="70" fill="#333">EN-IRC</text>
<circle cx="95" cy="90" r="4.5" fill="#1e8449" fill-opacity="0.8"/>
<text x="101" y="85" fill="#333">KO-IRC</text>
<circle cx="85" cy="60" r="4.5" fill="#c0392b" fill-opacity="0.8"/>
<text x="91" y="55" fill="#333">JA-IRL</text>
<circle cx="120" cy="121" r="4.5" fill="#2471a3" fill-opacity="0.8"/>
<text x="126" y="116" fill="#333">EN-IRL</text>
<circle cx="179" cy="136" r="4.5" fill="#1e8449" fill-opacity="0.8"/>
<text x="185" y="131" fill="#333">KO-IRL</text>
<circle cx="173" cy="318" r="4.5" fill="#c0392b" fill-opacity="0.8"/>
<text x="179" y="313" fill="#333">JA-IRID</text>
<circle cx="193" cy="288" r="4.5" fill="#2471a3" fill-opacity="0.8"/>
<text x="199" y="283" fill="#333">EN-IRID</text>
<circle cx="209" cy="364" r="4.5" fill="#1e8449" fill-opacity="0.8"/>
<text x="215" y="359" fill="#333">KO-IRID</text>
<circle cx="197" cy="212" r="4.5" fill="#c0392b" fill-opacity="0.8"/>
<text x="203" y="207" fill="#333">JA-IRIDL</text>
<circle cx="218" cy="181" r="4.5" fill="#2471a3" fill-opacity="0.8"/>
<text x="224" y="176" fill="#333">EN-IRIDL</text>
<circle cx="238" cy="272" r="4.5" fill="#1e8449" fill-opacity="0.8"/>
<text x="244" y="267" fill="#333">KO-IRIDL</text>
<circle cx="498" cy="90" r="4.5" fill="#c0392b" fill-opacity="0.8"/>
<text x="504" y="85" fill="#333">JA-L0</text>
<circle cx="80" cy="75" r="4.5" fill="#c0392b" fill-opacity="0.8"/>
<text x="86" y="70" fill="#333">JA-L1</text>
<circle cx="428" cy="60" r="4.5" fill="#2471a3" fill-opacity="0.8"/>
<text x="434" y="55" fill="#333">EN-L0</text>
<circle cx="70" cy="60" r="4.5" fill="#2471a3" fill-opacity="0.8"/>
<text x="76" y="55" fill="#333">EN-L1</text>
<circle cx="672" cy="60" r="4.5" fill="#1e8449" fill-opacity="0.8"/>
<text x="678" y="55" fill="#333">KO-L0</text>
<circle cx="138" cy="90" r="4.5" fill="#1e8449" fill-opacity="0.8"/>
<text x="144" y="85" fill="#333">KO-L1</text>
</svg>