<svg xmlns="http://www.w3.org/2000/svg" width="760" height="440" font-family="sans-serif" font-size="11">
<rect width="760" height="440" fill="white"/>
<text x="380.0" y="22" text-anchor="middle" font-size="14">Break-even reuse count vs LLM prefill speed (lower is better)</text>
<line x1="62" y1="378" x2="698" y2="378" stroke="#444"/><line x1="62" y1="62" x2="62" y2="378" stroke="#444"/>
<text x="380.0" y="426" text-anchor="middle">prefill tokens/s</text>
<text x="16" y="220.0" transform="rotate(-90 16 220.0)" text-anchor="middle">R_be (uses to repay)</text>
<text x="62" y="392" text-anchor="middle">30</text>
<text x="56" y="382" text-anchor="end">3.16e-06</text>
<text x="221" y="392" text-anchor="middle">152</text>
<text x="56" y="303" text-anchor="end">0.000223</text>
<text x="380" y="392" text-anchor="middle">775</text>
<text x="56" y="224" text-anchor="end">0.0158</text>
<text x="539" y="392" text-anchor="middle">3.94e+03</text>
<text x="56" y="145" text-anchor="end">1.12</text>
<text x="698" y="392" text-anchor="middle">2e+04</text>
<text x="56" y="66" text-anchor="end">78.8</text>
<polyline fill="none" stroke="#c0392b" stroke-width="2" points="62,281 180,259 230,249 337,229 405,216 562,186 698,161"/>
<circle cx="62" cy="281" r="3" fill="#c0392b"/>
<circle cx="180" cy="259" r="3" fill="#c0392b"/>
<circle cx="230" cy="249" r="3" fill="#c0392b"/>
<circle cx="337" cy="229" r="3" fill="#c0392b"/>
<circle cx="405" cy="216" r="3" fill="#c0392b"/>
<circle cx="562" cy="186" r="3" fill="#c0392b"/>
<circle cx="698" cy="161" r="3" fill="#c0392b"/>
<rect x="570" y="34" width="10" height="10" fill="#c0392b"/><text x="585" y="43">sudachi-m</text>
<polyline fill="none" stroke="#2471a3" stroke-width="2" points="62,274 180,251 230,242 337,221 405,209 562,179 698,153"/>
<circle cx="62" cy="274" r="3" fill="#2471a3"/>
<circle cx="180" cy="251" r="3" fill="#2471a3"/>
<circle cx="230" cy="242" r="3" fill="#2471a3"/>
<circle cx="337" cy="221" r="3" fill="#2471a3"/>
<circle cx="405" cy="209" r="3" fill="#2471a3"/>
<circle cx="562" cy="179" r="3" fill="#2471a3"/>
<circle cx="698" cy="153" r="3" fill="#2471a3"/>
<rect x="570" y="49" width="10" height="10" fill="#2471a3"/><text x="585" y="58">mecab-m</text>
<polyline fill="none" stroke="#1e8449" stroke-width="2" points="62,228 180,206 230,196 337,176 405,163 562,133 698,108"/>
<circle cx="62" cy="228" r="3" fill="#1e8449"/>
<circle cx="180" cy="206" r="3" fill="#1e8449"/>
<circle cx="230" cy="196" r="3" fill="#1e8449"/>
<circle cx="337" cy="176" r="3" fill="#1e8449"/>
<circle cx="405" cy="163" r="3" fill="#1e8449"/>
<circle cx="562" cy="133" r="3" fill="#1e8449"/>
<circle cx="698" cy="108" r="3" fill="#1e8449"/>
<rect x="570" y="64" width="10" height="10" fill="#1e8449"/><text x="585" y="73">janome-m</text>
<polyline fill="none" stroke="#e67e22" stroke-width="2" points="62,183 180,160 230,151 337,130 405,118 562,88 698,62"/>
<circle cx="62" cy="183" r="3" fill="#e67e22"/>
<circle cx="180" cy="160" r="3" fill="#e67e22"/>
<circle cx="230" cy="151" r="3" fill="#e67e22"/>
<circle cx="337" cy="130" r="3" fill="#e67e22"/>
<circle cx="405" cy="118" r="3" fill="#e67e22"/>
<circle cx="562" cy="88" r="3" fill="#e67e22"/>
<circle cx="698" cy="62" r="3" fill="#e67e22"/>
<rect x="570" y="79" width="10" height="10" fill="#e67e22"/><text x="585" y="88">ginza-m</text>
<polyline fill="none" stroke="#8e44ad" stroke-width="2" points="62,378 180,356 230,346 337,326 405,313 562,283 698,257"/>
<circle cx="62" cy="378" r="3" fill="#8e44ad"/>
<circle cx="180" cy="356" r="3" fill="#8e44ad"/>
<circle cx="230" cy="346" r="3" fill="#8e44ad"/>
<circle cx="337" cy="326" r="3" fill="#8e44ad"/>
<circle cx="405" cy="313" r="3" fill="#8e44ad"/>
<circle cx="562" cy="283" r="3" fill="#8e44ad"/>
<circle cx="698" cy="257" r="3" fill="#8e44ad"/>
<rect x="570" y="94" width="10" height="10" fill="#8e44ad"/><text x="585" y="103">naive</text>
</svg>